<mxfile host="app.diagrams.net" modified="2023-10-08T14:57:03.751Z" agent="Mozilla/5.0 (Windows NT 10.0; Win64; x64) AppleWebKit/537.36 (KHTML, like Gecko) Chrome/117.0.0.0 Safari/537.36" etag="yhp3ZVk87fub6LzRznv6" version="21.8.2" type="google" pages="2">
  <diagram name="Page-1" id="R2CB394BgbEObtmtlebj">
    <mxGraphModel grid="1" page="1" gridSize="10" guides="1" tooltips="1" connect="1" arrows="1" fold="1" pageScale="1" pageWidth="5000" pageHeight="5000" math="0" shadow="0">
      <root>
        <mxCell id="0" />
        <mxCell id="1" parent="0" />
        <mxCell id="DLyXyfvd9wdULZgjiA3j-1" value="" style="edgeStyle=orthogonalEdgeStyle;rounded=0;orthogonalLoop=1;jettySize=auto;html=1;" edge="1" parent="1" source="DLyXyfvd9wdULZgjiA3j-2" target="DLyXyfvd9wdULZgjiA3j-4">
          <mxGeometry relative="1" as="geometry" />
        </mxCell>
        <mxCell id="DLyXyfvd9wdULZgjiA3j-2" value="Init data logging" style="rounded=1;whiteSpace=wrap;html=1;" vertex="1" parent="1">
          <mxGeometry x="160" y="98" width="120" height="60" as="geometry" />
        </mxCell>
        <mxCell id="DLyXyfvd9wdULZgjiA3j-3" value="" style="edgeStyle=orthogonalEdgeStyle;rounded=0;orthogonalLoop=1;jettySize=auto;html=1;" edge="1" parent="1" source="DLyXyfvd9wdULZgjiA3j-4" target="DLyXyfvd9wdULZgjiA3j-6">
          <mxGeometry relative="1" as="geometry" />
        </mxCell>
        <mxCell id="DLyXyfvd9wdULZgjiA3j-4" value="Init comunications" style="whiteSpace=wrap;html=1;rounded=1;" vertex="1" parent="1">
          <mxGeometry x="160" y="20" width="120" height="60" as="geometry" />
        </mxCell>
        <mxCell id="DLyXyfvd9wdULZgjiA3j-5" value="" style="edgeStyle=orthogonalEdgeStyle;rounded=0;orthogonalLoop=1;jettySize=auto;html=1;" edge="1" parent="1" source="DLyXyfvd9wdULZgjiA3j-6" target="DLyXyfvd9wdULZgjiA3j-11">
          <mxGeometry relative="1" as="geometry" />
        </mxCell>
        <mxCell id="DLyXyfvd9wdULZgjiA3j-6" value="Init sensors" style="whiteSpace=wrap;html=1;rounded=1;" vertex="1" parent="1">
          <mxGeometry x="300" y="20" width="120" height="60" as="geometry" />
        </mxCell>
        <mxCell id="DLyXyfvd9wdULZgjiA3j-7" style="edgeStyle=orthogonalEdgeStyle;rounded=0;orthogonalLoop=1;jettySize=auto;html=1;" edge="1" parent="1" source="DLyXyfvd9wdULZgjiA3j-8" target="DLyXyfvd9wdULZgjiA3j-2">
          <mxGeometry relative="1" as="geometry" />
        </mxCell>
        <mxCell id="DLyXyfvd9wdULZgjiA3j-8" value="Power on" style="whiteSpace=wrap;html=1;rounded=1;" vertex="1" parent="1">
          <mxGeometry x="160" y="180" width="120" height="60" as="geometry" />
        </mxCell>
        <mxCell id="DLyXyfvd9wdULZgjiA3j-9" value="" style="edgeStyle=orthogonalEdgeStyle;rounded=0;orthogonalLoop=1;jettySize=auto;html=1;" edge="1" parent="1" source="DLyXyfvd9wdULZgjiA3j-11" target="DLyXyfvd9wdULZgjiA3j-14">
          <mxGeometry relative="1" as="geometry" />
        </mxCell>
        <mxCell id="DLyXyfvd9wdULZgjiA3j-10" value="" style="edgeStyle=orthogonalEdgeStyle;rounded=0;orthogonalLoop=1;jettySize=auto;html=1;" edge="1" parent="1" source="DLyXyfvd9wdULZgjiA3j-11">
          <mxGeometry relative="1" as="geometry">
            <mxPoint x="790" y="50" as="targetPoint" />
          </mxGeometry>
        </mxCell>
        <mxCell id="DLyXyfvd9wdULZgjiA3j-11" value="Prepeare state ended?" style="rhombus;whiteSpace=wrap;html=1;rounded=1;" vertex="1" parent="1">
          <mxGeometry x="520" y="10" width="80" height="80" as="geometry" />
        </mxCell>
        <mxCell id="DLyXyfvd9wdULZgjiA3j-12" value="" style="edgeStyle=orthogonalEdgeStyle;rounded=0;orthogonalLoop=1;jettySize=auto;html=1;" edge="1" parent="1" source="DLyXyfvd9wdULZgjiA3j-14" target="DLyXyfvd9wdULZgjiA3j-19">
          <mxGeometry relative="1" as="geometry" />
        </mxCell>
        <mxCell id="DLyXyfvd9wdULZgjiA3j-13" value="" style="edgeStyle=orthogonalEdgeStyle;rounded=0;orthogonalLoop=1;jettySize=auto;html=1;" edge="1" parent="1" source="DLyXyfvd9wdULZgjiA3j-14">
          <mxGeometry relative="1" as="geometry">
            <mxPoint x="560" y="293" as="targetPoint" />
          </mxGeometry>
        </mxCell>
        <mxCell id="DLyXyfvd9wdULZgjiA3j-14" value="data_send recieved?&amp;nbsp;" style="rhombus;whiteSpace=wrap;html=1;rounded=1;" vertex="1" parent="1">
          <mxGeometry x="520" y="170" width="80" height="80" as="geometry" />
        </mxCell>
        <mxCell id="DLyXyfvd9wdULZgjiA3j-15" value="" style="edgeStyle=orthogonalEdgeStyle;rounded=0;orthogonalLoop=1;jettySize=auto;html=1;" edge="1" parent="1" source="DLyXyfvd9wdULZgjiA3j-17" target="DLyXyfvd9wdULZgjiA3j-26">
          <mxGeometry relative="1" as="geometry" />
        </mxCell>
        <mxCell id="DLyXyfvd9wdULZgjiA3j-16" style="edgeStyle=orthogonalEdgeStyle;rounded=0;orthogonalLoop=1;jettySize=auto;html=1;exitX=0.5;exitY=1;exitDx=0;exitDy=0;" edge="1" parent="1" source="DLyXyfvd9wdULZgjiA3j-17">
          <mxGeometry relative="1" as="geometry">
            <mxPoint x="290" y="206" as="targetPoint" />
          </mxGeometry>
        </mxCell>
        <mxCell id="DLyXyfvd9wdULZgjiA3j-17" value="Arm recieved?" style="rhombus;whiteSpace=wrap;html=1;rounded=1;" vertex="1" parent="1">
          <mxGeometry x="510" y="294" width="100" height="80" as="geometry" />
        </mxCell>
        <mxCell id="DLyXyfvd9wdULZgjiA3j-105" style="edgeStyle=orthogonalEdgeStyle;rounded=0;orthogonalLoop=1;jettySize=auto;html=1;exitX=0.5;exitY=1;exitDx=0;exitDy=0;" edge="1" parent="1" source="DLyXyfvd9wdULZgjiA3j-19">
          <mxGeometry relative="1" as="geometry">
            <mxPoint x="560" y="290" as="targetPoint" />
          </mxGeometry>
        </mxCell>
        <mxCell id="DLyXyfvd9wdULZgjiA3j-19" value="send and log data" style="whiteSpace=wrap;html=1;rounded=1;" vertex="1" parent="1">
          <mxGeometry x="340" y="180" width="120" height="60" as="geometry" />
        </mxCell>
        <mxCell id="DLyXyfvd9wdULZgjiA3j-20" value="Yes" style="text;html=1;align=center;verticalAlign=middle;resizable=0;points=[];autosize=1;strokeColor=none;fillColor=none;" vertex="1" parent="1">
          <mxGeometry x="470" y="188" width="40" height="30" as="geometry" />
        </mxCell>
        <mxCell id="DLyXyfvd9wdULZgjiA3j-21" value="No" style="text;html=1;align=center;verticalAlign=middle;resizable=0;points=[];autosize=1;strokeColor=none;fillColor=none;" vertex="1" parent="1">
          <mxGeometry x="560" y="98" width="40" height="30" as="geometry" />
        </mxCell>
        <mxCell id="DLyXyfvd9wdULZgjiA3j-25" style="edgeStyle=orthogonalEdgeStyle;rounded=0;orthogonalLoop=1;jettySize=auto;html=1;" edge="1" parent="1" source="DLyXyfvd9wdULZgjiA3j-26">
          <mxGeometry relative="1" as="geometry">
            <mxPoint x="460" y="50" as="targetPoint" />
            <Array as="points">
              <mxPoint x="290" y="370" />
              <mxPoint x="290" y="130" />
              <mxPoint x="460" y="130" />
            </Array>
          </mxGeometry>
        </mxCell>
        <mxCell id="DLyXyfvd9wdULZgjiA3j-26" value="End prepare state and log it" style="whiteSpace=wrap;html=1;rounded=1;" vertex="1" parent="1">
          <mxGeometry x="320" y="304" width="120" height="60" as="geometry" />
        </mxCell>
        <mxCell id="DLyXyfvd9wdULZgjiA3j-38" value="" style="edgeStyle=orthogonalEdgeStyle;rounded=0;orthogonalLoop=1;jettySize=auto;html=1;" edge="1" parent="1" source="DLyXyfvd9wdULZgjiA3j-39" target="DLyXyfvd9wdULZgjiA3j-41">
          <mxGeometry relative="1" as="geometry">
            <Array as="points">
              <mxPoint x="840" y="100" />
              <mxPoint x="840" y="100" />
            </Array>
          </mxGeometry>
        </mxCell>
        <mxCell id="DLyXyfvd9wdULZgjiA3j-39" value="Acent state ended?" style="rhombus;whiteSpace=wrap;html=1;rounded=1;" vertex="1" parent="1">
          <mxGeometry x="800" y="10" width="80" height="80" as="geometry" />
        </mxCell>
        <mxCell id="DLyXyfvd9wdULZgjiA3j-40" value="" style="edgeStyle=orthogonalEdgeStyle;rounded=0;orthogonalLoop=1;jettySize=auto;html=1;" edge="1" parent="1" source="DLyXyfvd9wdULZgjiA3j-41" target="DLyXyfvd9wdULZgjiA3j-44">
          <mxGeometry relative="1" as="geometry">
            <Array as="points">
              <mxPoint x="840" y="190" />
              <mxPoint x="840" y="190" />
            </Array>
          </mxGeometry>
        </mxCell>
        <mxCell id="DLyXyfvd9wdULZgjiA3j-41" value="Send and log data" style="whiteSpace=wrap;html=1;rounded=1;" vertex="1" parent="1">
          <mxGeometry x="780" y="110" width="120" height="60" as="geometry" />
        </mxCell>
        <mxCell id="DLyXyfvd9wdULZgjiA3j-42" value="" style="edgeStyle=orthogonalEdgeStyle;rounded=0;orthogonalLoop=1;jettySize=auto;html=1;" edge="1" parent="1" source="DLyXyfvd9wdULZgjiA3j-44" target="DLyXyfvd9wdULZgjiA3j-46">
          <mxGeometry relative="1" as="geometry" />
        </mxCell>
        <mxCell id="DLyXyfvd9wdULZgjiA3j-43" style="edgeStyle=orthogonalEdgeStyle;rounded=0;orthogonalLoop=1;jettySize=auto;html=1;exitX=0.5;exitY=1;exitDx=0;exitDy=0;" edge="1" parent="1" source="DLyXyfvd9wdULZgjiA3j-44">
          <mxGeometry relative="1" as="geometry">
            <mxPoint x="700" y="50" as="targetPoint" />
            <Array as="points">
              <mxPoint x="840" y="340" />
              <mxPoint x="630" y="340" />
              <mxPoint x="630" y="50" />
            </Array>
          </mxGeometry>
        </mxCell>
        <mxCell id="DLyXyfvd9wdULZgjiA3j-44" value="Start of the fall detected?" style="rhombus;whiteSpace=wrap;html=1;rounded=1;" vertex="1" parent="1">
          <mxGeometry x="780" y="240" width="120" height="80" as="geometry" />
        </mxCell>
        <mxCell id="DLyXyfvd9wdULZgjiA3j-45" style="edgeStyle=orthogonalEdgeStyle;rounded=0;orthogonalLoop=1;jettySize=auto;html=1;exitX=0.5;exitY=0;exitDx=0;exitDy=0;" edge="1" parent="1" source="DLyXyfvd9wdULZgjiA3j-46">
          <mxGeometry relative="1" as="geometry">
            <mxPoint x="699.6470588235293" y="50" as="targetPoint" />
          </mxGeometry>
        </mxCell>
        <mxCell id="DLyXyfvd9wdULZgjiA3j-46" value="End ascent state and log it" style="whiteSpace=wrap;html=1;rounded=1;" vertex="1" parent="1">
          <mxGeometry x="640" y="250" width="120" height="60" as="geometry" />
        </mxCell>
        <mxCell id="DLyXyfvd9wdULZgjiA3j-47" value="Yes" style="text;html=1;align=center;verticalAlign=middle;resizable=0;points=[];autosize=1;strokeColor=none;fillColor=none;" vertex="1" parent="1">
          <mxGeometry x="750" y="248" width="40" height="30" as="geometry" />
        </mxCell>
        <mxCell id="DLyXyfvd9wdULZgjiA3j-48" value="No" style="text;html=1;align=center;verticalAlign=middle;resizable=0;points=[];autosize=1;strokeColor=none;fillColor=none;" vertex="1" parent="1">
          <mxGeometry x="760" y="318" width="40" height="30" as="geometry" />
        </mxCell>
        <mxCell id="DLyXyfvd9wdULZgjiA3j-49" value="" style="edgeStyle=orthogonalEdgeStyle;rounded=0;orthogonalLoop=1;jettySize=auto;html=1;" edge="1" parent="1" target="DLyXyfvd9wdULZgjiA3j-53">
          <mxGeometry relative="1" as="geometry">
            <mxPoint x="1650" y="50" as="sourcePoint" />
          </mxGeometry>
        </mxCell>
        <mxCell id="DLyXyfvd9wdULZgjiA3j-51" value="" style="edgeStyle=orthogonalEdgeStyle;rounded=0;orthogonalLoop=1;jettySize=auto;html=1;" edge="1" parent="1" source="DLyXyfvd9wdULZgjiA3j-53" target="DLyXyfvd9wdULZgjiA3j-62">
          <mxGeometry relative="1" as="geometry" />
        </mxCell>
        <mxCell id="DLyXyfvd9wdULZgjiA3j-53" value="Descent state ended?" style="rhombus;whiteSpace=wrap;html=1;rounded=1;" vertex="1" parent="1">
          <mxGeometry x="1700" y="10" width="100" height="80" as="geometry" />
        </mxCell>
        <mxCell id="DLyXyfvd9wdULZgjiA3j-56" value="Yes" style="text;html=1;align=center;verticalAlign=middle;resizable=0;points=[];autosize=1;strokeColor=none;fillColor=none;" vertex="1" parent="1">
          <mxGeometry x="580" y="18" width="40" height="30" as="geometry" />
        </mxCell>
        <mxCell id="DLyXyfvd9wdULZgjiA3j-57" style="edgeStyle=orthogonalEdgeStyle;rounded=0;orthogonalLoop=1;jettySize=auto;html=1;entryX=0;entryY=0.5;entryDx=0;entryDy=0;" edge="1" parent="1" source="DLyXyfvd9wdULZgjiA3j-58" target="DLyXyfvd9wdULZgjiA3j-101">
          <mxGeometry relative="1" as="geometry" />
        </mxCell>
        <mxCell id="DLyXyfvd9wdULZgjiA3j-58" value="Yes" style="text;html=1;align=center;verticalAlign=middle;resizable=0;points=[];autosize=1;strokeColor=none;fillColor=none;" vertex="1" parent="1">
          <mxGeometry x="870" y="30" width="40" height="30" as="geometry" />
        </mxCell>
        <mxCell id="DLyXyfvd9wdULZgjiA3j-59" value="No" style="text;html=1;align=center;verticalAlign=middle;resizable=0;points=[];autosize=1;strokeColor=none;fillColor=none;" vertex="1" parent="1">
          <mxGeometry x="830" y="78" width="40" height="30" as="geometry" />
        </mxCell>
        <mxCell id="DLyXyfvd9wdULZgjiA3j-60" value="" style="edgeStyle=orthogonalEdgeStyle;rounded=0;orthogonalLoop=1;jettySize=auto;html=1;" edge="1" parent="1" source="DLyXyfvd9wdULZgjiA3j-62" target="DLyXyfvd9wdULZgjiA3j-64">
          <mxGeometry relative="1" as="geometry" />
        </mxCell>
        <mxCell id="DLyXyfvd9wdULZgjiA3j-61" value="" style="edgeStyle=orthogonalEdgeStyle;rounded=0;orthogonalLoop=1;jettySize=auto;html=1;" edge="1" parent="1" source="DLyXyfvd9wdULZgjiA3j-62" target="DLyXyfvd9wdULZgjiA3j-79">
          <mxGeometry relative="1" as="geometry" />
        </mxCell>
        <mxCell id="DLyXyfvd9wdULZgjiA3j-62" value="Time to eject parachute" style="rhombus;whiteSpace=wrap;html=1;rounded=1;" vertex="1" parent="1">
          <mxGeometry x="1700" y="118" width="100" height="80" as="geometry" />
        </mxCell>
        <mxCell id="DLyXyfvd9wdULZgjiA3j-63" value="" style="edgeStyle=orthogonalEdgeStyle;rounded=0;orthogonalLoop=1;jettySize=auto;html=1;" edge="1" parent="1" source="DLyXyfvd9wdULZgjiA3j-64" target="DLyXyfvd9wdULZgjiA3j-83">
          <mxGeometry relative="1" as="geometry" />
        </mxCell>
        <mxCell id="DLyXyfvd9wdULZgjiA3j-64" value="Turn on mosfet" style="whiteSpace=wrap;html=1;rounded=1;" vertex="1" parent="1">
          <mxGeometry x="1510" y="128" width="120" height="60" as="geometry" />
        </mxCell>
        <mxCell id="DLyXyfvd9wdULZgjiA3j-65" value="Yes" style="text;html=1;align=center;verticalAlign=middle;resizable=0;points=[];autosize=1;strokeColor=none;fillColor=none;" vertex="1" parent="1">
          <mxGeometry x="460" y="302" width="40" height="30" as="geometry" />
        </mxCell>
        <mxCell id="DLyXyfvd9wdULZgjiA3j-67" style="edgeStyle=orthogonalEdgeStyle;rounded=0;orthogonalLoop=1;jettySize=auto;html=1;exitX=0.5;exitY=1;exitDx=0;exitDy=0;entryX=0.5;entryY=0;entryDx=0;entryDy=0;" edge="1" parent="1" target="DLyXyfvd9wdULZgjiA3j-17">
          <mxGeometry relative="1" as="geometry">
            <mxPoint x="560" y="229" as="sourcePoint" />
          </mxGeometry>
        </mxCell>
        <mxCell id="DLyXyfvd9wdULZgjiA3j-74" value="No" style="text;html=1;align=center;verticalAlign=middle;resizable=0;points=[];autosize=1;strokeColor=none;fillColor=none;" vertex="1" parent="1">
          <mxGeometry x="490" y="364" width="40" height="30" as="geometry" />
        </mxCell>
        <mxCell id="DLyXyfvd9wdULZgjiA3j-75" value="Yes" style="text;html=1;align=center;verticalAlign=middle;resizable=0;points=[];autosize=1;strokeColor=none;fillColor=none;" vertex="1" parent="1">
          <mxGeometry x="1650" y="126" width="40" height="30" as="geometry" />
        </mxCell>
        <mxCell id="DLyXyfvd9wdULZgjiA3j-76" value="No" style="text;html=1;align=center;verticalAlign=middle;resizable=0;points=[];autosize=1;strokeColor=none;fillColor=none;" vertex="1" parent="1">
          <mxGeometry x="1750" y="88" width="40" height="30" as="geometry" />
        </mxCell>
        <mxCell id="DLyXyfvd9wdULZgjiA3j-77" value="" style="edgeStyle=orthogonalEdgeStyle;rounded=0;orthogonalLoop=1;jettySize=auto;html=1;" edge="1" parent="1" source="DLyXyfvd9wdULZgjiA3j-79" target="DLyXyfvd9wdULZgjiA3j-81">
          <mxGeometry relative="1" as="geometry" />
        </mxCell>
        <mxCell id="DLyXyfvd9wdULZgjiA3j-78" value="" style="edgeStyle=orthogonalEdgeStyle;rounded=0;orthogonalLoop=1;jettySize=auto;html=1;" edge="1" parent="1" source="DLyXyfvd9wdULZgjiA3j-79" target="DLyXyfvd9wdULZgjiA3j-87">
          <mxGeometry relative="1" as="geometry" />
        </mxCell>
        <mxCell id="DLyXyfvd9wdULZgjiA3j-79" value="Time to turn of mosfet?" style="rhombus;whiteSpace=wrap;html=1;rounded=1;" vertex="1" parent="1">
          <mxGeometry x="1700" y="278" width="100" height="80" as="geometry" />
        </mxCell>
        <mxCell id="DLyXyfvd9wdULZgjiA3j-80" style="edgeStyle=orthogonalEdgeStyle;rounded=0;orthogonalLoop=1;jettySize=auto;html=1;exitX=0.5;exitY=1;exitDx=0;exitDy=0;entryX=0.491;entryY=-0.153;entryDx=0;entryDy=0;entryPerimeter=0;" edge="1" parent="1" source="DLyXyfvd9wdULZgjiA3j-81" target="DLyXyfvd9wdULZgjiA3j-87">
          <mxGeometry relative="1" as="geometry" />
        </mxCell>
        <mxCell id="DLyXyfvd9wdULZgjiA3j-81" value="Turn off mosfet&amp;nbsp;" style="whiteSpace=wrap;html=1;rounded=1;" vertex="1" parent="1">
          <mxGeometry x="1510" y="288" width="120" height="60" as="geometry" />
        </mxCell>
        <mxCell id="DLyXyfvd9wdULZgjiA3j-82" style="edgeStyle=orthogonalEdgeStyle;rounded=0;orthogonalLoop=1;jettySize=auto;html=1;exitX=1;exitY=0.5;exitDx=0;exitDy=0;" edge="1" parent="1" source="DLyXyfvd9wdULZgjiA3j-83">
          <mxGeometry relative="1" as="geometry">
            <mxPoint x="1749.9999999999995" y="245.76470588235293" as="targetPoint" />
          </mxGeometry>
        </mxCell>
        <mxCell id="DLyXyfvd9wdULZgjiA3j-83" value="Start timer for closing the mosfet after X seconds" style="rounded=1;whiteSpace=wrap;html=1;" vertex="1" parent="1">
          <mxGeometry x="1510" y="216" width="120" height="60" as="geometry" />
        </mxCell>
        <mxCell id="DLyXyfvd9wdULZgjiA3j-84" value="No" style="text;html=1;align=center;verticalAlign=middle;resizable=0;points=[];autosize=1;strokeColor=none;fillColor=none;" vertex="1" parent="1">
          <mxGeometry x="1750" y="206" width="40" height="30" as="geometry" />
        </mxCell>
        <mxCell id="DLyXyfvd9wdULZgjiA3j-85" value="Yes" style="text;html=1;align=center;verticalAlign=middle;resizable=0;points=[];autosize=1;strokeColor=none;fillColor=none;" vertex="1" parent="1">
          <mxGeometry x="1650" y="288" width="40" height="30" as="geometry" />
        </mxCell>
        <mxCell id="DLyXyfvd9wdULZgjiA3j-86" value="" style="edgeStyle=orthogonalEdgeStyle;rounded=0;orthogonalLoop=1;jettySize=auto;html=1;" edge="1" parent="1" source="DLyXyfvd9wdULZgjiA3j-87">
          <mxGeometry relative="1" as="geometry">
            <mxPoint x="1750" y="470" as="targetPoint" />
          </mxGeometry>
        </mxCell>
        <mxCell id="DLyXyfvd9wdULZgjiA3j-87" value="Send and log data" style="whiteSpace=wrap;html=1;rounded=1;" vertex="1" parent="1">
          <mxGeometry x="1690" y="386" width="120" height="60" as="geometry" />
        </mxCell>
        <mxCell id="DLyXyfvd9wdULZgjiA3j-88" value="no" style="text;html=1;align=center;verticalAlign=middle;resizable=0;points=[];autosize=1;strokeColor=none;fillColor=none;" vertex="1" parent="1">
          <mxGeometry x="1760" y="338" width="40" height="30" as="geometry" />
        </mxCell>
        <mxCell id="DLyXyfvd9wdULZgjiA3j-92" style="edgeStyle=orthogonalEdgeStyle;rounded=0;orthogonalLoop=1;jettySize=auto;html=1;exitX=0.5;exitY=1;exitDx=0;exitDy=0;" edge="1" parent="1" source="DLyXyfvd9wdULZgjiA3j-87">
          <mxGeometry relative="1" as="geometry">
            <mxPoint x="1669.9999999999995" y="50" as="targetPoint" />
            <Array as="points">
              <mxPoint x="1750" y="470" />
              <mxPoint x="1490" y="470" />
              <mxPoint x="1490" y="100" />
              <mxPoint x="1670" y="100" />
            </Array>
            <mxPoint x="1530" y="510" as="sourcePoint" />
          </mxGeometry>
        </mxCell>
        <mxCell id="DLyXyfvd9wdULZgjiA3j-100" style="edgeStyle=orthogonalEdgeStyle;rounded=0;orthogonalLoop=1;jettySize=auto;html=1;exitX=1;exitY=0.5;exitDx=0;exitDy=0;entryX=0;entryY=0.5;entryDx=0;entryDy=0;" edge="1" parent="1" source="DLyXyfvd9wdULZgjiA3j-101" target="GQMT101q5yd-mHO2gbdn-1">
          <mxGeometry relative="1" as="geometry">
            <mxPoint x="1230" y="45" as="targetPoint" />
            <Array as="points">
              <mxPoint x="1260" y="50" />
            </Array>
          </mxGeometry>
        </mxCell>
        <mxCell id="DLyXyfvd9wdULZgjiA3j-101" value="Start timer for descent sate to end after X seconds" style="rounded=1;whiteSpace=wrap;html=1;" vertex="1" parent="1">
          <mxGeometry x="940" y="20" width="120" height="60" as="geometry" />
        </mxCell>
        <mxCell id="DLyXyfvd9wdULZgjiA3j-102" style="edgeStyle=orthogonalEdgeStyle;rounded=0;orthogonalLoop=1;jettySize=auto;html=1;exitX=1;exitY=0.5;exitDx=0;exitDy=0;entryX=0;entryY=0.5;entryDx=0;entryDy=0;" edge="1" parent="1" target="DLyXyfvd9wdULZgjiA3j-39">
          <mxGeometry relative="1" as="geometry">
            <mxPoint x="610" y="50" as="sourcePoint" />
          </mxGeometry>
        </mxCell>
        <mxCell id="DLyXyfvd9wdULZgjiA3j-106" value="CORE 1" style="rounded=0;whiteSpace=wrap;html=1;" vertex="1" parent="1">
          <mxGeometry x="10" y="10" width="120" height="400" as="geometry" />
        </mxCell>
        <mxCell id="DLyXyfvd9wdULZgjiA3j-107" value="CORE 2" style="rounded=0;whiteSpace=wrap;html=1;" vertex="1" parent="1">
          <mxGeometry x="10" y="440" width="120" height="260" as="geometry" />
        </mxCell>
        <mxCell id="GQMT101q5yd-mHO2gbdn-10" style="edgeStyle=orthogonalEdgeStyle;rounded=0;orthogonalLoop=1;jettySize=auto;html=1;exitX=0.5;exitY=1;exitDx=0;exitDy=0;entryX=0.5;entryY=0;entryDx=0;entryDy=0;" edge="1" parent="1" source="GQMT101q5yd-mHO2gbdn-1" target="GQMT101q5yd-mHO2gbdn-3">
          <mxGeometry relative="1" as="geometry" />
        </mxCell>
        <mxCell id="GQMT101q5yd-mHO2gbdn-12" style="edgeStyle=orthogonalEdgeStyle;rounded=0;orthogonalLoop=1;jettySize=auto;html=1;exitX=1;exitY=0.5;exitDx=0;exitDy=0;" edge="1" parent="1" source="GQMT101q5yd-mHO2gbdn-1">
          <mxGeometry relative="1" as="geometry">
            <mxPoint x="1660" y="50" as="targetPoint" />
          </mxGeometry>
        </mxCell>
        <mxCell id="GQMT101q5yd-mHO2gbdn-1" value="Freefall state ended?" style="rhombus;whiteSpace=wrap;html=1;rounded=1;" vertex="1" parent="1">
          <mxGeometry x="1260" y="10" width="100" height="80" as="geometry" />
        </mxCell>
        <mxCell id="GQMT101q5yd-mHO2gbdn-2" value="" style="edgeStyle=orthogonalEdgeStyle;rounded=0;orthogonalLoop=1;jettySize=auto;html=1;" edge="1" parent="1" source="GQMT101q5yd-mHO2gbdn-3" target="GQMT101q5yd-mHO2gbdn-6">
          <mxGeometry relative="1" as="geometry" />
        </mxCell>
        <mxCell id="GQMT101q5yd-mHO2gbdn-3" value="Send and log data" style="whiteSpace=wrap;html=1;rounded=1;" vertex="1" parent="1">
          <mxGeometry x="1250" y="140" width="120" height="60" as="geometry" />
        </mxCell>
        <mxCell id="GQMT101q5yd-mHO2gbdn-4" value="" style="edgeStyle=orthogonalEdgeStyle;rounded=0;orthogonalLoop=1;jettySize=auto;html=1;" edge="1" parent="1" source="GQMT101q5yd-mHO2gbdn-6" target="GQMT101q5yd-mHO2gbdn-7">
          <mxGeometry relative="1" as="geometry" />
        </mxCell>
        <mxCell id="GQMT101q5yd-mHO2gbdn-5" style="edgeStyle=orthogonalEdgeStyle;rounded=0;orthogonalLoop=1;jettySize=auto;html=1;exitX=0.5;exitY=1;exitDx=0;exitDy=0;" edge="1" parent="1" source="GQMT101q5yd-mHO2gbdn-6">
          <mxGeometry relative="1" as="geometry">
            <mxPoint x="1180" y="50" as="targetPoint" />
            <Array as="points">
              <mxPoint x="1310" y="324" />
              <mxPoint x="1080" y="324" />
              <mxPoint x="1080" y="50" />
            </Array>
          </mxGeometry>
        </mxCell>
        <mxCell id="GQMT101q5yd-mHO2gbdn-6" value="Time to move to landing state?" style="rhombus;whiteSpace=wrap;html=1;rounded=1;" vertex="1" parent="1">
          <mxGeometry x="1260" y="224" width="100" height="80" as="geometry" />
        </mxCell>
        <mxCell id="GQMT101q5yd-mHO2gbdn-7" value="End descent state and log it" style="whiteSpace=wrap;html=1;rounded=1;" vertex="1" parent="1">
          <mxGeometry x="1090" y="234" width="120" height="60" as="geometry" />
        </mxCell>
        <mxCell id="GQMT101q5yd-mHO2gbdn-8" value="yes" style="text;html=1;align=center;verticalAlign=middle;resizable=0;points=[];autosize=1;strokeColor=none;fillColor=none;" vertex="1" parent="1">
          <mxGeometry x="1220" y="232" width="40" height="30" as="geometry" />
        </mxCell>
        <mxCell id="GQMT101q5yd-mHO2gbdn-9" value="No" style="text;html=1;align=center;verticalAlign=middle;resizable=0;points=[];autosize=1;strokeColor=none;fillColor=none;" vertex="1" parent="1">
          <mxGeometry x="1200" y="302" width="40" height="30" as="geometry" />
        </mxCell>
        <mxCell id="GQMT101q5yd-mHO2gbdn-11" value="no" style="text;html=1;align=center;verticalAlign=middle;resizable=0;points=[];autosize=1;strokeColor=none;fillColor=none;" vertex="1" parent="1">
          <mxGeometry x="1310" y="88" width="40" height="30" as="geometry" />
        </mxCell>
        <mxCell id="GQMT101q5yd-mHO2gbdn-37" value="Data_sent" style="swimlane;fontStyle=0;childLayout=stackLayout;horizontal=1;startSize=30;horizontalStack=0;resizeParent=1;resizeParentMax=0;resizeLast=0;collapsible=1;marginBottom=0;whiteSpace=wrap;html=1;" vertex="1" parent="1">
          <mxGeometry x="310" y="870" width="260" height="570" as="geometry" />
        </mxCell>
        <mxCell id="GQMT101q5yd-mHO2gbdn-38" value="gps lng (float)" style="text;strokeColor=none;fillColor=none;align=left;verticalAlign=middle;spacingLeft=4;spacingRight=4;overflow=hidden;points=[[0,0.5],[1,0.5]];portConstraint=eastwest;rotatable=0;whiteSpace=wrap;html=1;" vertex="1" parent="GQMT101q5yd-mHO2gbdn-37">
          <mxGeometry y="30" width="260" height="30" as="geometry" />
        </mxCell>
        <mxCell id="GQMT101q5yd-mHO2gbdn-39" value="gps lat (float)" style="text;strokeColor=none;fillColor=none;align=left;verticalAlign=middle;spacingLeft=4;spacingRight=4;overflow=hidden;points=[[0,0.5],[1,0.5]];portConstraint=eastwest;rotatable=0;whiteSpace=wrap;html=1;" vertex="1" parent="GQMT101q5yd-mHO2gbdn-37">
          <mxGeometry y="60" width="260" height="30" as="geometry" />
        </mxCell>
        <mxCell id="GQMT101q5yd-mHO2gbdn-40" value="gps height (float)" style="text;strokeColor=none;fillColor=none;align=left;verticalAlign=middle;spacingLeft=4;spacingRight=4;overflow=hidden;points=[[0,0.5],[1,0.5]];portConstraint=eastwest;rotatable=0;whiteSpace=wrap;html=1;" vertex="1" parent="GQMT101q5yd-mHO2gbdn-37">
          <mxGeometry y="90" width="260" height="30" as="geometry" />
        </mxCell>
        <mxCell id="GQMT101q5yd-mHO2gbdn-76" value="gps velocity (float)" style="text;strokeColor=none;fillColor=none;align=left;verticalAlign=middle;spacingLeft=4;spacingRight=4;overflow=hidden;points=[[0,0.5],[1,0.5]];portConstraint=eastwest;rotatable=0;whiteSpace=wrap;html=1;" vertex="1" parent="GQMT101q5yd-mHO2gbdn-37">
          <mxGeometry y="120" width="260" height="30" as="geometry" />
        </mxCell>
        <mxCell id="GQMT101q5yd-mHO2gbdn-63" value="gps satts (int)" style="text;strokeColor=none;fillColor=none;align=left;verticalAlign=middle;spacingLeft=4;spacingRight=4;overflow=hidden;points=[[0,0.5],[1,0.5]];portConstraint=eastwest;rotatable=0;whiteSpace=wrap;html=1;" vertex="1" parent="GQMT101q5yd-mHO2gbdn-37">
          <mxGeometry y="150" width="260" height="30" as="geometry" />
        </mxCell>
        <mxCell id="GQMT101q5yd-mHO2gbdn-65" value="baro height outter (float)" style="text;strokeColor=none;fillColor=none;align=left;verticalAlign=middle;spacingLeft=4;spacingRight=4;overflow=hidden;points=[[0,0.5],[1,0.5]];portConstraint=eastwest;rotatable=0;whiteSpace=wrap;html=1;" vertex="1" parent="GQMT101q5yd-mHO2gbdn-37">
          <mxGeometry y="180" width="260" height="30" as="geometry" />
        </mxCell>
        <mxCell id="GQMT101q5yd-mHO2gbdn-66" value="Inner temp (float)" style="text;strokeColor=none;fillColor=none;align=left;verticalAlign=middle;spacingLeft=4;spacingRight=4;overflow=hidden;points=[[0,0.5],[1,0.5]];portConstraint=eastwest;rotatable=0;whiteSpace=wrap;html=1;" vertex="1" parent="GQMT101q5yd-mHO2gbdn-37">
          <mxGeometry y="210" width="260" height="30" as="geometry" />
        </mxCell>
        <mxCell id="GQMT101q5yd-mHO2gbdn-78" value="Heater power (int)" style="text;strokeColor=none;fillColor=none;align=left;verticalAlign=middle;spacingLeft=4;spacingRight=4;overflow=hidden;points=[[0,0.5],[1,0.5]];portConstraint=eastwest;rotatable=0;whiteSpace=wrap;html=1;" vertex="1" parent="GQMT101q5yd-mHO2gbdn-37">
          <mxGeometry y="240" width="260" height="30" as="geometry" />
        </mxCell>
        <mxCell id="GQMT101q5yd-mHO2gbdn-67" value="Outter temp (float)" style="text;strokeColor=none;fillColor=none;align=left;verticalAlign=middle;spacingLeft=4;spacingRight=4;overflow=hidden;points=[[0,0.5],[1,0.5]];portConstraint=eastwest;rotatable=0;whiteSpace=wrap;html=1;" vertex="1" parent="GQMT101q5yd-mHO2gbdn-37">
          <mxGeometry y="270" width="260" height="30" as="geometry" />
        </mxCell>
        <mxCell id="GQMT101q5yd-mHO2gbdn-68" value="IMU acc z (float)" style="text;strokeColor=none;fillColor=none;align=left;verticalAlign=middle;spacingLeft=4;spacingRight=4;overflow=hidden;points=[[0,0.5],[1,0.5]];portConstraint=eastwest;rotatable=0;whiteSpace=wrap;html=1;" vertex="1" parent="GQMT101q5yd-mHO2gbdn-37">
          <mxGeometry y="300" width="260" height="30" as="geometry" />
        </mxCell>
        <mxCell id="GQMT101q5yd-mHO2gbdn-69" value="Ranging lng (float)" style="text;strokeColor=none;fillColor=none;align=left;verticalAlign=middle;spacingLeft=4;spacingRight=4;overflow=hidden;points=[[0,0.5],[1,0.5]];portConstraint=eastwest;rotatable=0;whiteSpace=wrap;html=1;" vertex="1" parent="GQMT101q5yd-mHO2gbdn-37">
          <mxGeometry y="330" width="260" height="30" as="geometry" />
        </mxCell>
        <mxCell id="GQMT101q5yd-mHO2gbdn-70" value="Ranging lat (float)" style="text;strokeColor=none;fillColor=none;align=left;verticalAlign=middle;spacingLeft=4;spacingRight=4;overflow=hidden;points=[[0,0.5],[1,0.5]];portConstraint=eastwest;rotatable=0;whiteSpace=wrap;html=1;" vertex="1" parent="GQMT101q5yd-mHO2gbdn-37">
          <mxGeometry y="360" width="260" height="30" as="geometry" />
        </mxCell>
        <mxCell id="GQMT101q5yd-mHO2gbdn-71" value="Ranging height (float)" style="text;strokeColor=none;fillColor=none;align=left;verticalAlign=middle;spacingLeft=4;spacingRight=4;overflow=hidden;points=[[0,0.5],[1,0.5]];portConstraint=eastwest;rotatable=0;whiteSpace=wrap;html=1;" vertex="1" parent="GQMT101q5yd-mHO2gbdn-37">
          <mxGeometry y="390" width="260" height="30" as="geometry" />
        </mxCell>
        <mxCell id="GQMT101q5yd-mHO2gbdn-80" value="Time since ranging pos update (long int)" style="text;strokeColor=none;fillColor=none;align=left;verticalAlign=middle;spacingLeft=4;spacingRight=4;overflow=hidden;points=[[0,0.5],[1,0.5]];portConstraint=eastwest;rotatable=0;whiteSpace=wrap;html=1;" vertex="1" parent="GQMT101q5yd-mHO2gbdn-37">
          <mxGeometry y="420" width="260" height="30" as="geometry" />
        </mxCell>
        <mxCell id="GQMT101q5yd-mHO2gbdn-72" value="Ranging result master (float)" style="text;strokeColor=none;fillColor=none;align=left;verticalAlign=middle;spacingLeft=4;spacingRight=4;overflow=hidden;points=[[0,0.5],[1,0.5]];portConstraint=eastwest;rotatable=0;whiteSpace=wrap;html=1;" vertex="1" parent="GQMT101q5yd-mHO2gbdn-37">
          <mxGeometry y="450" width="260" height="30" as="geometry" />
        </mxCell>
        <mxCell id="GQMT101q5yd-mHO2gbdn-83" value="Time since receival (long int)" style="text;strokeColor=none;fillColor=none;align=left;verticalAlign=middle;spacingLeft=4;spacingRight=4;overflow=hidden;points=[[0,0.5],[1,0.5]];portConstraint=eastwest;rotatable=0;whiteSpace=wrap;html=1;" vertex="1" parent="GQMT101q5yd-mHO2gbdn-37">
          <mxGeometry y="480" width="260" height="30" as="geometry" />
        </mxCell>
        <mxCell id="GQMT101q5yd-mHO2gbdn-73" value="Time ms (long int)" style="text;strokeColor=none;fillColor=none;align=left;verticalAlign=middle;spacingLeft=4;spacingRight=4;overflow=hidden;points=[[0,0.5],[1,0.5]];portConstraint=eastwest;rotatable=0;whiteSpace=wrap;html=1;" vertex="1" parent="GQMT101q5yd-mHO2gbdn-37">
          <mxGeometry y="510" width="260" height="30" as="geometry" />
        </mxCell>
        <mxCell id="GQMT101q5yd-mHO2gbdn-74" value="Batt voltage (float)" style="text;strokeColor=none;fillColor=none;align=left;verticalAlign=middle;spacingLeft=4;spacingRight=4;overflow=hidden;points=[[0,0.5],[1,0.5]];portConstraint=eastwest;rotatable=0;whiteSpace=wrap;html=1;" vertex="1" parent="GQMT101q5yd-mHO2gbdn-37">
          <mxGeometry y="540" width="260" height="30" as="geometry" />
        </mxCell>
        <mxCell id="GQMT101q5yd-mHO2gbdn-42" value="Data_logged" style="swimlane;fontStyle=0;childLayout=stackLayout;horizontal=1;startSize=30;horizontalStack=0;resizeParent=1;resizeParentMax=0;resizeLast=0;collapsible=1;marginBottom=0;whiteSpace=wrap;html=1;" vertex="1" parent="1">
          <mxGeometry x="10" y="870" width="240" height="660" as="geometry" />
        </mxCell>
        <mxCell id="GQMT101q5yd-mHO2gbdn-43" value="gps lng (float)" style="text;strokeColor=none;fillColor=none;align=left;verticalAlign=middle;spacingLeft=4;spacingRight=4;overflow=hidden;points=[[0,0.5],[1,0.5]];portConstraint=eastwest;rotatable=0;whiteSpace=wrap;html=1;" vertex="1" parent="GQMT101q5yd-mHO2gbdn-42">
          <mxGeometry y="30" width="240" height="30" as="geometry" />
        </mxCell>
        <mxCell id="GQMT101q5yd-mHO2gbdn-44" value="gps lat (float)" style="text;strokeColor=none;fillColor=none;align=left;verticalAlign=middle;spacingLeft=4;spacingRight=4;overflow=hidden;points=[[0,0.5],[1,0.5]];portConstraint=eastwest;rotatable=0;whiteSpace=wrap;html=1;" vertex="1" parent="GQMT101q5yd-mHO2gbdn-42">
          <mxGeometry y="60" width="240" height="30" as="geometry" />
        </mxCell>
        <mxCell id="GQMT101q5yd-mHO2gbdn-45" value="gps height (float)" style="text;strokeColor=none;fillColor=none;align=left;verticalAlign=middle;spacingLeft=4;spacingRight=4;overflow=hidden;points=[[0,0.5],[1,0.5]];portConstraint=eastwest;rotatable=0;whiteSpace=wrap;html=1;" vertex="1" parent="GQMT101q5yd-mHO2gbdn-42">
          <mxGeometry y="90" width="240" height="30" as="geometry" />
        </mxCell>
        <mxCell id="GQMT101q5yd-mHO2gbdn-50" value="gps satts (int)" style="text;strokeColor=none;fillColor=none;align=left;verticalAlign=middle;spacingLeft=4;spacingRight=4;overflow=hidden;points=[[0,0.5],[1,0.5]];portConstraint=eastwest;rotatable=0;whiteSpace=wrap;html=1;" vertex="1" parent="GQMT101q5yd-mHO2gbdn-42">
          <mxGeometry y="120" width="240" height="30" as="geometry" />
        </mxCell>
        <mxCell id="GQMT101q5yd-mHO2gbdn-49" value="ms_since gps update (int)" style="text;strokeColor=none;fillColor=none;align=left;verticalAlign=middle;spacingLeft=4;spacingRight=4;overflow=hidden;points=[[0,0.5],[1,0.5]];portConstraint=eastwest;rotatable=0;whiteSpace=wrap;html=1;" vertex="1" parent="GQMT101q5yd-mHO2gbdn-42">
          <mxGeometry y="150" width="240" height="30" as="geometry" />
        </mxCell>
        <mxCell id="GQMT101q5yd-mHO2gbdn-48" value="baro pressure outter (float)" style="text;strokeColor=none;fillColor=none;align=left;verticalAlign=middle;spacingLeft=4;spacingRight=4;overflow=hidden;points=[[0,0.5],[1,0.5]];portConstraint=eastwest;rotatable=0;whiteSpace=wrap;html=1;" vertex="1" parent="GQMT101q5yd-mHO2gbdn-42">
          <mxGeometry y="180" width="240" height="30" as="geometry" />
        </mxCell>
        <mxCell id="GQMT101q5yd-mHO2gbdn-47" value="baro height outter (float)" style="text;strokeColor=none;fillColor=none;align=left;verticalAlign=middle;spacingLeft=4;spacingRight=4;overflow=hidden;points=[[0,0.5],[1,0.5]];portConstraint=eastwest;rotatable=0;whiteSpace=wrap;html=1;" vertex="1" parent="GQMT101q5yd-mHO2gbdn-42">
          <mxGeometry y="210" width="240" height="30" as="geometry" />
        </mxCell>
        <mxCell id="GQMT101q5yd-mHO2gbdn-46" value="Inner temp (float)" style="text;strokeColor=none;fillColor=none;align=left;verticalAlign=middle;spacingLeft=4;spacingRight=4;overflow=hidden;points=[[0,0.5],[1,0.5]];portConstraint=eastwest;rotatable=0;whiteSpace=wrap;html=1;" vertex="1" parent="GQMT101q5yd-mHO2gbdn-42">
          <mxGeometry y="240" width="240" height="30" as="geometry" />
        </mxCell>
        <mxCell id="GQMT101q5yd-mHO2gbdn-52" value="Outter temp (float)" style="text;strokeColor=none;fillColor=none;align=left;verticalAlign=middle;spacingLeft=4;spacingRight=4;overflow=hidden;points=[[0,0.5],[1,0.5]];portConstraint=eastwest;rotatable=0;whiteSpace=wrap;html=1;" vertex="1" parent="GQMT101q5yd-mHO2gbdn-42">
          <mxGeometry y="270" width="240" height="30" as="geometry" />
        </mxCell>
        <mxCell id="GQMT101q5yd-mHO2gbdn-55" value="Heater power (int)" style="text;strokeColor=none;fillColor=none;align=left;verticalAlign=middle;spacingLeft=4;spacingRight=4;overflow=hidden;points=[[0,0.5],[1,0.5]];portConstraint=eastwest;rotatable=0;whiteSpace=wrap;html=1;" vertex="1" parent="GQMT101q5yd-mHO2gbdn-42">
          <mxGeometry y="300" width="240" height="30" as="geometry" />
        </mxCell>
        <mxCell id="GQMT101q5yd-mHO2gbdn-54" value="Humidty (float)" style="text;strokeColor=none;fillColor=none;align=left;verticalAlign=middle;spacingLeft=4;spacingRight=4;overflow=hidden;points=[[0,0.5],[1,0.5]];portConstraint=eastwest;rotatable=0;whiteSpace=wrap;html=1;" vertex="1" parent="GQMT101q5yd-mHO2gbdn-42">
          <mxGeometry y="330" width="240" height="30" as="geometry" />
        </mxCell>
        <mxCell id="GQMT101q5yd-mHO2gbdn-53" value="IMU acc [3] float" style="text;strokeColor=none;fillColor=none;align=left;verticalAlign=middle;spacingLeft=4;spacingRight=4;overflow=hidden;points=[[0,0.5],[1,0.5]];portConstraint=eastwest;rotatable=0;whiteSpace=wrap;html=1;" vertex="1" parent="GQMT101q5yd-mHO2gbdn-42">
          <mxGeometry y="360" width="240" height="30" as="geometry" />
        </mxCell>
        <mxCell id="GQMT101q5yd-mHO2gbdn-58" value="IMU gyro [3] float&amp;nbsp;" style="text;strokeColor=none;fillColor=none;align=left;verticalAlign=middle;spacingLeft=4;spacingRight=4;overflow=hidden;points=[[0,0.5],[1,0.5]];portConstraint=eastwest;rotatable=0;whiteSpace=wrap;html=1;" vertex="1" parent="GQMT101q5yd-mHO2gbdn-42">
          <mxGeometry y="390" width="240" height="30" as="geometry" />
        </mxCell>
        <mxCell id="GQMT101q5yd-mHO2gbdn-56" value="Ranging result filtered [3] (float)" style="text;strokeColor=none;fillColor=none;align=left;verticalAlign=middle;spacingLeft=4;spacingRight=4;overflow=hidden;points=[[0,0.5],[1,0.5]];portConstraint=eastwest;rotatable=0;whiteSpace=wrap;html=1;" vertex="1" parent="GQMT101q5yd-mHO2gbdn-42">
          <mxGeometry y="420" width="240" height="30" as="geometry" />
        </mxCell>
        <mxCell id="GQMT101q5yd-mHO2gbdn-81" value="Time since receival [3] (long int)" style="text;strokeColor=none;fillColor=none;align=left;verticalAlign=middle;spacingLeft=4;spacingRight=4;overflow=hidden;points=[[0,0.5],[1,0.5]];portConstraint=eastwest;rotatable=0;whiteSpace=wrap;html=1;" vertex="1" parent="GQMT101q5yd-mHO2gbdn-42">
          <mxGeometry y="450" width="240" height="30" as="geometry" />
        </mxCell>
        <mxCell id="GQMT101q5yd-mHO2gbdn-61" value="Ranging lng (float)" style="text;strokeColor=none;fillColor=none;align=left;verticalAlign=middle;spacingLeft=4;spacingRight=4;overflow=hidden;points=[[0,0.5],[1,0.5]];portConstraint=eastwest;rotatable=0;whiteSpace=wrap;html=1;" vertex="1" parent="GQMT101q5yd-mHO2gbdn-42">
          <mxGeometry y="480" width="240" height="30" as="geometry" />
        </mxCell>
        <mxCell id="GQMT101q5yd-mHO2gbdn-60" value="Ranging lat (float)" style="text;strokeColor=none;fillColor=none;align=left;verticalAlign=middle;spacingLeft=4;spacingRight=4;overflow=hidden;points=[[0,0.5],[1,0.5]];portConstraint=eastwest;rotatable=0;whiteSpace=wrap;html=1;" vertex="1" parent="GQMT101q5yd-mHO2gbdn-42">
          <mxGeometry y="510" width="240" height="30" as="geometry" />
        </mxCell>
        <mxCell id="GQMT101q5yd-mHO2gbdn-59" value="Ranging height (float)" style="text;strokeColor=none;fillColor=none;align=left;verticalAlign=middle;spacingLeft=4;spacingRight=4;overflow=hidden;points=[[0,0.5],[1,0.5]];portConstraint=eastwest;rotatable=0;whiteSpace=wrap;html=1;" vertex="1" parent="GQMT101q5yd-mHO2gbdn-42">
          <mxGeometry y="540" width="240" height="30" as="geometry" />
        </mxCell>
        <mxCell id="GQMT101q5yd-mHO2gbdn-82" value="Time since ranging pos update (long int)" style="text;strokeColor=none;fillColor=none;align=left;verticalAlign=middle;spacingLeft=4;spacingRight=4;overflow=hidden;points=[[0,0.5],[1,0.5]];portConstraint=eastwest;rotatable=0;whiteSpace=wrap;html=1;" vertex="1" parent="GQMT101q5yd-mHO2gbdn-42">
          <mxGeometry y="570" width="240" height="30" as="geometry" />
        </mxCell>
        <mxCell id="GQMT101q5yd-mHO2gbdn-62" value="Time ms (long int)" style="text;strokeColor=none;fillColor=none;align=left;verticalAlign=middle;spacingLeft=4;spacingRight=4;overflow=hidden;points=[[0,0.5],[1,0.5]];portConstraint=eastwest;rotatable=0;whiteSpace=wrap;html=1;" vertex="1" parent="GQMT101q5yd-mHO2gbdn-42">
          <mxGeometry y="600" width="240" height="30" as="geometry" />
        </mxCell>
        <mxCell id="GQMT101q5yd-mHO2gbdn-77" value="Batt voltage (float)" style="text;strokeColor=none;fillColor=none;align=left;verticalAlign=middle;spacingLeft=4;spacingRight=4;overflow=hidden;points=[[0,0.5],[1,0.5]];portConstraint=eastwest;rotatable=0;whiteSpace=wrap;html=1;" vertex="1" parent="GQMT101q5yd-mHO2gbdn-42">
          <mxGeometry y="630" width="240" height="30" as="geometry" />
        </mxCell>
        <mxCell id="GQMT101q5yd-mHO2gbdn-86" value="" style="edgeStyle=orthogonalEdgeStyle;rounded=0;orthogonalLoop=1;jettySize=auto;html=1;" edge="1" parent="1" source="GQMT101q5yd-mHO2gbdn-84" target="GQMT101q5yd-mHO2gbdn-85">
          <mxGeometry relative="1" as="geometry" />
        </mxCell>
        <mxCell id="GQMT101q5yd-mHO2gbdn-84" value="Send and log data" style="rounded=1;whiteSpace=wrap;html=1;" vertex="1" parent="1">
          <mxGeometry x="780" y="870" width="680" height="40" as="geometry" />
        </mxCell>
        <mxCell id="GQMT101q5yd-mHO2gbdn-88" value="" style="edgeStyle=orthogonalEdgeStyle;rounded=0;orthogonalLoop=1;jettySize=auto;html=1;" edge="1" parent="1" source="GQMT101q5yd-mHO2gbdn-85" target="GQMT101q5yd-mHO2gbdn-87">
          <mxGeometry relative="1" as="geometry" />
        </mxCell>
        <mxCell id="GQMT101q5yd-mHO2gbdn-85" value="Read gps lng, gps lat, gps height, gps velocity, gps satts for gps module" style="whiteSpace=wrap;html=1;rounded=1;" vertex="1" parent="1">
          <mxGeometry x="783" y="950" width="120" height="60" as="geometry" />
        </mxCell>
        <mxCell id="GQMT101q5yd-mHO2gbdn-90" value="" style="edgeStyle=orthogonalEdgeStyle;rounded=0;orthogonalLoop=1;jettySize=auto;html=1;" edge="1" parent="1" source="GQMT101q5yd-mHO2gbdn-87" target="GQMT101q5yd-mHO2gbdn-89">
          <mxGeometry relative="1" as="geometry" />
        </mxCell>
        <mxCell id="GQMT101q5yd-mHO2gbdn-87" value="Get time since last gps update" style="whiteSpace=wrap;html=1;rounded=1;" vertex="1" parent="1">
          <mxGeometry x="783" y="1030" width="120" height="60" as="geometry" />
        </mxCell>
        <mxCell id="GQMT101q5yd-mHO2gbdn-92" value="" style="edgeStyle=orthogonalEdgeStyle;rounded=0;orthogonalLoop=1;jettySize=auto;html=1;" edge="1" parent="1" source="GQMT101q5yd-mHO2gbdn-89" target="GQMT101q5yd-mHO2gbdn-91">
          <mxGeometry relative="1" as="geometry" />
        </mxCell>
        <mxCell id="GQMT101q5yd-mHO2gbdn-89" value="manage heating and get temp data" style="whiteSpace=wrap;html=1;rounded=1;" vertex="1" parent="1">
          <mxGeometry x="783" y="1110" width="120" height="60" as="geometry" />
        </mxCell>
        <mxCell id="GQMT101q5yd-mHO2gbdn-91" value="" style="whiteSpace=wrap;html=1;rounded=1;" vertex="1" parent="1">
          <mxGeometry x="783" y="1190" width="120" height="60" as="geometry" />
        </mxCell>
      </root>
    </mxGraphModel>
  </diagram>
  <diagram id="SA8g5v5bc32JIJugSVVC" name="Trilateration">
    <mxGraphModel grid="1" page="1" gridSize="10" guides="1" tooltips="1" connect="1" arrows="1" fold="1" pageScale="1" pageWidth="1850" pageHeight="11000" math="0" shadow="0">
      <root>
        <mxCell id="0" />
        <mxCell id="1" parent="0" />
        <mxCell id="cUELc_UhVwaMFNI0jUzP-1" value="" style="ellipse;whiteSpace=wrap;html=1;aspect=fixed;" vertex="1" parent="1">
          <mxGeometry x="390" y="210" width="20" height="20" as="geometry" />
        </mxCell>
        <mxCell id="cUELc_UhVwaMFNI0jUzP-4" value="" style="endArrow=none;html=1;rounded=0;" edge="1" parent="1">
          <mxGeometry width="50" height="50" relative="1" as="geometry">
            <mxPoint x="280" y="400" as="sourcePoint" />
            <mxPoint x="400" y="220" as="targetPoint" />
          </mxGeometry>
        </mxCell>
        <mxCell id="cUELc_UhVwaMFNI0jUzP-5" value="" style="endArrow=none;html=1;rounded=0;" edge="1" parent="1">
          <mxGeometry width="50" height="50" relative="1" as="geometry">
            <mxPoint x="400" y="220" as="sourcePoint" />
            <mxPoint x="320" y="120" as="targetPoint" />
          </mxGeometry>
        </mxCell>
        <mxCell id="cUELc_UhVwaMFNI0jUzP-6" value="" style="endArrow=none;html=1;rounded=0;" edge="1" parent="1">
          <mxGeometry width="50" height="50" relative="1" as="geometry">
            <mxPoint x="520" y="320" as="sourcePoint" />
            <mxPoint x="400" y="220" as="targetPoint" />
          </mxGeometry>
        </mxCell>
        <mxCell id="cUELc_UhVwaMFNI0jUzP-7" value="" style="endArrow=none;dashed=1;html=1;dashPattern=1 3;strokeWidth=2;rounded=0;" edge="1" parent="1">
          <mxGeometry width="50" height="50" relative="1" as="geometry">
            <mxPoint x="520" y="220" as="sourcePoint" />
            <mxPoint x="520" y="320" as="targetPoint" />
          </mxGeometry>
        </mxCell>
        <mxCell id="cUELc_UhVwaMFNI0jUzP-8" value="" style="endArrow=none;dashed=1;html=1;dashPattern=1 3;strokeWidth=2;rounded=0;" edge="1" parent="1">
          <mxGeometry width="50" height="50" relative="1" as="geometry">
            <mxPoint x="400" y="220" as="sourcePoint" />
            <mxPoint x="520" y="220" as="targetPoint" />
          </mxGeometry>
        </mxCell>
      </root>
    </mxGraphModel>
  </diagram>
</mxfile>
